<svg xmlns="http://www.w3.org/2000/svg" viewBox="0 0 128 128" width="128" height="128">
  <defs>
    <linearGradient id="bg" x1="0%" y1="0%" x2="100%" y2="100%">
      <stop offset="0%" style="stop-color:#667eea;stop-opacity:1" />
      <stop offset="100%" style="stop-color:#764ba2;stop-opacity:1" />
    </linearGradient>
  </defs>
  <!-- 背景圆角矩形 -->
  <rect width="128" height="128" rx="24" fill="url(#bg)"/>
  <!-- 消息气泡 -->
  <path d="M30 35 h68 a8 8 0 0 1 8 8 v30 a8 8 0 0 1 -8 8 h-20 l-12 12 v-12 h-36 a8 8 0 0 1 -8 -8 v-30 a8 8 0 0 1 8 -8z" fill="white" opacity="0.95"/>
  <!-- AI 闪电 -->
  <path d="M62 48 l-6 14 h10 l-6 14 14-18 h-10 l6-14z" fill="#667eea" opacity="0.9"/>
  <!-- 星星装饰 -->
  <circle cx="88" cy="42" r="3" fill="#ffd700" opacity="0.8"/>
  <circle cx="95" cy="50" r="2" fill="#ffd700" opacity="0.6"/>
</svg>